<?xml version="1.0" encoding="UTF-8"?>
<!-- Generator: Adobe Illustrator 22.1.0, SVG Export Plug-In . SVG Version: 6.00 Build 0)  -->
<svg version="1.1" xmlns="http://www.w3.org/2000/svg" xmlns:xlink="http://www.w3.org/1999/xlink" x="0px" y="0px" viewBox="0 0 150 150" style="enable-background:new 0 0 150 150;" xml:space="preserve">
<style type="text/css">
	.st0{fill:#F7F7F7;}
	.st1{fill:#1A1A1A;}
</style>
<g id="Layer_2">
	<path class="st0" d="M139.4,146.8H10.6c-4.1,0-7.4-3.3-7.4-7.4V10.6c0-4.1,3.3-7.4,7.4-7.4h128.8c4.1,0,7.4,3.3,7.4,7.4v128.8   C146.8,143.5,143.5,146.8,139.4,146.8z"/>
</g>
<g id="Layer_1">
	<title>logo</title>
	<g id="G_Owl">
		<path id="Owl_Body" class="st1" d="M74.6,136.2c-0.6-1.2-1.2-2.5-1.9-3.7s-1.4-2.6-1.1-4.1c0.2-1.1,0.7-2.2,1-3.3s0.6-2.2,0.9-3.3    c0.1-0.5,0.1-1.2-0.6-1.2c-0.5,0.1-0.9,0.4-1.1,0.8c-0.3,1.1-0.4,2.2-0.6,3.3c-0.1,0.5-0.3,1.1-0.6,1.5c-0.2,0.2-0.5,0.2-0.7,0.1    c-0.7-0.6-1.3-1.3-2-1.8c-1-0.6-1.3-1.9-0.7-2.8c0.1-0.2,0.2-0.3,0.4-0.5l1.4-1.7c0.3-0.3,0.3-0.7-0.2-0.8c-0.1,0-0.1,0-0.2-0.1    c-0.3-0.2-0.7-0.7-0.8-0.7c-0.4,0.3-0.8,0.7-1.1,1.1c-0.1,0.2-0.3,0.3-0.3,0.5c-1.2,1.7-2.7,1.8-4.2,0.3c-0.6-0.5-1.2-0.9-1.8-1.3    c1.3-0.9,2.7-1.8,3.9-2.6c-1.5-1.6-2.8-3.2-4.4-4.7c-1-0.9-2.3-1.2-3.2-2.3c-1.4-1.9-3-3.7-4.4-5.6c-0.3-0.6-1-0.8-1.6-0.7    c-1.2,0.3-2.5,0.5-3.9,0.8c0-0.4,0.1-0.7,0.2-1.1c0.6-1.9,1.2-3.8,1.7-5.7c0.1-0.5,0.2-1,0.3-1.8c-5.8,4-11.5,3.7-17.5,1.2    l7.5-5.7l0.1-0.2h-0.3c-6.6,1.6-12.1-0.7-17.2-5.1c3.2-0.9,6.2-1.8,9.2-2.6c-6.5-0.6-11.9-2.6-14.7-9.2c3-0.2,5.9-0.3,8.7-0.5    c-5.8-2.1-10-5.7-11.8-12L21,62c-2.6-1.6-4.9-3.6-6.8-6.1c-1.8-2.7-2.9-5.7-3.4-8.9l6.6,2.2c-5.8-3.8-9.1-10.4-8.8-17.4l5.9,3.3    l0.9,0.6c0-0.1,0.1-0.1,0.1-0.2l-0.8-0.6c-2.5-2.4-4.5-5.4-5.7-8.7c-1-3-1.4-6.2-1.3-9.4v-3c1.4,1.2,2.5,2.2,3.7,3.2    c7.2,5.9,14.4,11.7,21.6,17.7c6.2,5.1,12.2,10.3,18.3,15.5c0.7,0.5,1.3,1.1,2,1.7c3.8,3.3,4,7.3,1.8,11.5    c-0.3,0.7-0.8,1.3-1.2,1.9c-1.6,2.4-1.8,5.4-0.7,7.9c1.8-2.1,3.6-4.1,5.1-6.2c1.2-1.7,1-3.6,0.6-5.7c-0.7-3.8-3.1-6.6-4.6-9.9    c-0.3-0.7-0.5-1.4-0.8-2.1c0-0.1,0-0.2-0.1-0.3c-1.3-1.3-1.1-3.1-1.6-4.7c-0.5-1.3,0.8-3,2.2-3.6c2.6-1.1,5.3-0.9,8.1-0.9    c0.7,0,1.5,0.1,2.2,0.2c0.4,0.1,0.9,0.5,0.9,0.8c-0.1,0.4-0.3,0.8-0.7,1c-1.8,0.4-3.7,0.7-5.6,1c-0.4,0.1-0.9,0.2-1.3,0.4    c-0.7,0.3-0.7,0.9-0.4,1.5c0.5,1.1,1.1,2.1,1.7,3.2c1.5,2.1,3.1,4.2,4.8,6.2c1.7,1.9,3.2,4,4.3,6.3c0.6,1.5,1.3,3,1.9,4.5    c0.2,0.7,0.3,1.5,0.3,2.3c0,0.2,0.2,0.5,0.3,0.6c1.4,0.6,2.9,0.9,4.4,1.1c1.5-0.1,3-0.5,4.3-1.1c0.3-0.1,0.4-0.8,0.5-1.3    c0.2-2.7,1.6-4.9,2.7-7.2c1.3-2.9,3.7-4.9,5.6-7.4c1.1-1.5,2.2-3,3.2-4.5c0.5-0.9,1-1.8,1.5-2.7c0.4-0.8-0.2-1.6-1.2-1.8l-5.2-0.8    c-0.3,0-0.6-0.1-0.9-0.3c-0.3-0.2-0.7-0.6-0.7-0.9s0.5-0.7,0.8-0.8c0.3-0.1,0.7-0.2,1.1-0.2c2.6,0,5.2-0.4,7.7,0.4    c1,0.3,2,0.7,2.8,1.3c1,0.7,0.9,1.9,0.8,3.1c-0.1,1.9-1.1,3.4-1.7,5.1c-0.6,1.4-1.3,2.7-2.1,4c-0.9,1.6-1.8,3.2-2.6,4.9    c-0.9,2-1.2,4.1-0.9,6.3c0.4,1.6,1.3,3.1,2.5,4.3c1.1,1.3,2.3,2.5,3.5,3.8c1-2.3,0.9-5-0.3-7.2c-0.8-1.2-1.5-2.4-2.1-3.7    c-1.8-4.6-0.8-7.5,2.2-10.2c2.7-2.4,5.6-4.8,8.4-7.1c10-8.3,20-16.7,30-25c2.3-1.9,4.6-3.9,6.8-5.9c0.1-0.1,0.2-0.1,0.5-0.3    c0,1.3,0,2.5,0,3.7c0,3-0.4,5.9-1.3,8.7c-1.2,3.3-3.2,6.3-5.7,8.8l-0.8,0.6c0,0.1,0.1,0.1,0.1,0.2l0.9-0.6    c1.9-1.1,3.8-2.1,5.9-3.3c0.2,3.4-0.6,6.8-2.1,9.9c-1.6,3-3.9,5.5-6.7,7.5l6.6-2.2c-1.1,6.7-4.3,11.7-10.3,14.9    c2.6-0.4,5.3-0.8,8-1.3c-1.8,6.3-5.9,9.9-11.8,12l8.8,0.5c-2.8,6.6-8.3,8.6-14.7,9.2c3,0.8,6.1,1.7,9.2,2.6    c-5,4.4-10.5,6.7-17.2,5.1h-0.3l0.1,0.2l7.3,5.6c-5.4,2.9-12.1,2.6-17.1-0.9c0,0.5,0,1.1,0.1,1.6c0.5,1.9,1.1,3.8,1.7,5.7    c0.1,0.3,0.1,0.6,0.3,1.1c-1.5-0.3-2.8-0.6-4.2-0.8c-0.3-0.1-0.6,0-0.9,0.3c-1.8,2.8-4.4,4.7-6.8,6.8c-1.8,1.5-3.7,3-5.4,4.5    c-1,0.8-0.9,1.1,0.1,1.9s2.1,1.7,3.1,2.6c-0.9,0.7-1.8,1.4-2.7,2c-0.9,0.6-2.2,0.4-2.8-0.6c0,0,0-0.1-0.1-0.1    c-0.5-0.6-0.9-1.3-1.2-2c-0.4-0.7-0.7-0.6-1.1,0c-0.8,1.1-0.8,1.2,0.1,2.2c0.2,0.2,0.4,0.4,0.6,0.6c1.4,1.5,1.3,2.6-0.3,3.9    c-0.7,0.6-1.4,1.3-2.3,2c-0.7-2-1.3-3.9-1.9-5.9c-1.3,0.4-1.5,2-0.9,3.5c0.4,1,0.9,1.9,1.4,2.9c0.7,1.3,0.6,2.8-0.2,4.1    c-0.6,1-1.3,2-1.8,3c-0.3,0.6-0.5,1.3-0.7,2C75,136.2,74.8,136.2,74.6,136.2z M50.1,89.9c0.1,1.2,0.2,2.5,0.4,3.7    c0.2,2.1,0.9,4.2,2,6c2,2.9,4.3,5.6,6.8,8c4.2,3.9,8.7,7.4,13.4,10.6c1.5,1,2.2,1,3.7-0.2c2.5-1.8,4.9-3.7,7.4-5.4    c3.5-2.4,6.7-5.1,9.5-8.3c1.3-1.7,2.5-3.5,3.4-5.4c0.4-0.8,0.8-1.6,1.1-2.4c0.6-1.6,1.6-3.1,1.8-4.7c0.8-6.7-1.1-13.4-5.3-18.7    c-1.2-1.6-2.5-2.6-4.7-2.2c-1.1,0.2-2.2-0.1-3.3,0.1c-2.7,0.4-5.1,1.9-6.6,4.2C78.4,77,77.3,79,76.4,81c-0.4,0.9-1.2,1-1.9,1    c-0.2,0-0.6-0.7-0.9-1.1s-0.4-0.7-0.6-1.1c-1.4-2.4-2.5-5-5-6.7c-1.8-1.3-3.5-2.3-5.7-2.3c-1.3,0-2.6-0.1-3.9,0    c-0.5,0-1,0.2-1.3,0.6C52.5,76.5,50.2,82.4,50.1,89.9z M48.6,84.2c0.6-3.1,1.6-6,3.2-8.8c0.1-0.3,0-0.6-0.1-0.8    c-1.6-2.8-1.7-6.1-0.3-9c0.6-1.3,1.6-2.5,2.2-3.9c1.2-2.5,1.4-5-0.7-7.3c-0.4-0.5-0.9-0.9-1.3-1.3L37.7,41.4    c-1-0.8-1.9-1.6-2.9-2.5c-1.5,3.9-1.1,8.3,1.2,11.8c1.6,2.5,3.6,4.6,6.1,6.3l1.4,1C38.3,66.4,41.4,79.5,48.6,84.2z M115.2,39    c-0.1,0-0.2,0.1-0.3,0.2c-5.6,4.8-11.2,9.5-16.7,14.3c-2.5,2.1-3.5,4.4-1.6,8.6c0.5,1,1.2,1.9,1.7,2.9c1.7,3,1.7,6.7,0,9.8    c-0.1,0.3-0.1,0.7,0,1.1c0.8,2,1.6,3.9,2.4,5.8c0.3,0.9,0.5,1.8,0.7,2.7c6.8-4.3,10.6-17.6,5.2-26.2c0.2-0.1,0.4-0.3,0.6-0.4    c1.8-1.4,3.5-2.9,5.1-4.5C115.9,49.4,117,43.9,115.2,39z M10,18.6c-0.1,0.1-0.1,0.1-0.1,0.1s0,0.2,0,0.4c0,6.1,2.9,11.9,7.8,15.6    c3.2,2.6,6.7,4.8,10.1,7.1c1.3,0.9,2.6,1.7,3.8,2.5c0.4-2.1,0.8-4.2,1.3-6.2c0.2-0.4,0-0.9-0.3-1.1c-4.5-3.6-9-7.3-13.5-11    C16,23.5,13,21.1,10,18.6z M118.4,44.3c0.6-0.4,1.4-0.9,2.2-1.5c3.9-2.7,7.9-5.3,11.6-8.2c4.1-3.1,6.9-7.7,7.6-12.8    c0.1-1.1,0.2-2.1,0.3-3.5l-1.4,1.1L117.4,37c-0.4,0.2-0.5,0.7-0.4,1.1C117.6,40.1,118,42.2,118.4,44.3z M40.4,58.9    c-8.8-2.9-17.6-5.8-26.6-8.7c1.3,4.2,4.2,7.6,8.2,9.5c3.3,1.6,6.9,2.7,10.5,3.4c2.1,0.5,4.3,0.9,6.4,1.3L40.4,58.9z M109.6,58.9    c0.5,1.9,1,3.7,1.5,5.6c1.8-0.4,3.6-0.7,5.3-1.1c4-0.9,7.9-1.8,11.6-3.6c3.9-1.9,6.9-5.3,8.2-9.5C127.2,53.2,118.4,56,109.6,58.9    L109.6,58.9z M139,35.8c-0.2,0-0.3,0-0.3,0c-6.5,3.6-13,7.2-19.6,10.8c-0.9,0.4-1.6,1.2-1.8,2.2c-0.2,0.6-0.4,1.2-0.8,1.8    c-0.8,1.4-1.8,2.8-2.6,4.2c0.2,0,0.4-0.1,0.6-0.1c3.5-1.3,7-2.6,10.5-4c3.9-1.6,7.5-3.5,10.3-6.8C137.2,41.6,138.5,38.8,139,35.8z     M36,54.8c0.1-0.1,0.1-0.2,0.2-0.2L35.6,54c-1.4-1.7-2.4-3.7-3.1-5.8c-0.2-0.5-0.5-0.9-1-1.2c-5.9-3.3-11.8-6.6-17.8-9.9l-2.8-1.5    c0.1,0.6,0.2,1,0.3,1.4c0.1,0.6,0.3,1.3,0.6,1.9C13.5,43.4,17,47,21.4,49c3.4,1.7,7.1,3,10.6,4.4C33.4,53.9,34.7,54.3,36,54.8z     M39,71.5c-0.1-1.3-0.2-2.7-0.2-4c0-0.8-0.3-1-1-1c-6.8-1-13.5-1.9-20.3-2.9l-1.1-0.1c0.1,0.2,0.2,0.4,0.3,0.7    c2.3,3.7,6,6.2,10.3,6.8c3.9,0.6,7.8,0.5,11.7,0.8C38.9,71.7,38.9,71.6,39,71.5z M133.5,63.4c-0.5,0-0.7,0.1-1,0.1    c-4,0.6-8,1.2-12,1.8c-2.9,0.4-5.8,0.8-8.6,1.2c-0.2,0-0.6,0.3-0.7,0.5c-0.1,1.5-0.2,3-0.2,4.6c0.1,0,0.2,0.1,0.3,0.1    c2.5-0.1,5.1-0.1,7.6-0.2c3.8-0.1,7.4-1.2,10.5-3.4C131.1,66.8,132.5,65.3,133.5,63.4L133.5,63.4z M19.7,75.2    c0.1,0.2,0.2,0.3,0.3,0.4c1.7,1.9,3.9,3.3,6.4,3.8c3.6,0.8,7.3,0.9,11,0.3c1.4-0.2,2.7-0.4,4-0.7c-0.6-1.7-1.2-3.1-1.7-4.7    c-0.2-0.5-0.3-0.6-0.9-0.6c-4.1,0.3-8.2,0.6-12.2,0.8C24.3,74.8,22,75,19.7,75.2z M108.6,79.1C108.6,79.1,108.6,79.1,108.6,79.1    c3.9,0.9,7.9,1.2,11.8,0.9c2.8-0.2,5.6-1.1,7.9-2.8c0.7-0.6,1.3-1.3,2.2-2l-6.6-0.4c-4.3-0.3-8.6-0.6-12.9-0.9    c-0.3,0-0.5,0.2-0.7,0.4C109.7,75.8,109.2,77.4,108.6,79.1z M26.4,85.9c6.1,4,12.8,3.2,19.2-1.3c-0.6-0.6-1.2-1.2-1.7-1.9    c-1.4-1.7-1.4-1.7-3.5-1.1C35.8,83.1,31.2,84.5,26.4,85.9z M104.4,84.8c6.7,4.5,15.5,5.1,19.1,1.2c-5.2-1.6-10.3-3.1-15.6-4.6    c-0.3-0.1-0.6,0-0.8,0.2C106.1,82.5,105.3,83.6,104.4,84.8L104.4,84.8z M36,95.4c0.5,0.1,0.7,0.2,1,0.2c3.8,0.9,7.8-0.1,10.8-2.6    c0.3-0.3,0.5-0.7,0.6-1.1c0-1.6,0-3.1-0.1-4.7c-0.1-0.3-0.3-0.6-0.5-0.8c-0.1-0.1-0.5,0.1-0.6,0.2C43.5,89.4,39.8,92.3,36,95.4z     M102.4,86.2c-0.5,0.1-0.9,0.7-0.7,1.2c0,0,0,0,0,0c0.1,1.2,0.1,2.4,0,3.6c-0.2,0.9,0.2,1.9,1.1,2.4c0.4,0.3,0.9,0.6,1.3,0.9    c3,1.6,6.6,2,9.9,1.1L102.4,86.2z"/>
		<path id="Owl_Crown" class="st1" d="M66.2,53.3c-0.7-2.9-1.3-5.8-2-8.7c0.1,0,0.2,0,0.2,0c2.2,2.5,5.3,2.4,7.8-0.3    c1.5-1.7,2-3.8,2.4-6c0-0.2,0.1-0.5,0.1-0.7s0.1-0.3,0.2-0.6c0.3,1.4,0.5,2.6,0.8,3.8c0.5,2.6,2.5,4.7,5,5.4    c1.6,0.5,3.4,0,4.5-1.4c0.1-0.1,0.1-0.2,0.1-0.3l0.3,0.2c-0.7,2.8-1.3,5.7-2,8.6C77.9,51.5,71.8,51.5,66.2,53.3z"/>
		<path id="Owl_Chest" class="st1" d="M90.6,104.3c-2,2.2-4.3,4.2-6.9,5.9c-2.9,1.9-5.7,4.1-8.5,6.1c-0.3,0.3-0.8,0.4-1.2,0.1    c-5.7-3.3-10.8-7.5-15.4-12.2c0,0-0.1-0.1-0.2-0.2c1.7-1.6,3.5-3.2,5.2-4.8c0.3-0.2,0.6-0.2,0.9-0.2l18.7,0.7    c0.3,0,0.6,0.1,0.9,0.2C86.4,101.4,88.5,102.8,90.6,104.3z"/>
		<path id="Owl_Beak" class="st1" d="M75,93.2c-0.7-1.6-1.3-3-1.8-4.5c0-0.2,0-0.4,0.1-0.6c0.6-1.3,1.2-2.5,1.8-3.9    c0.7,1.3,1.3,2.4,1.9,3.6c0.1,0.2,0.1,0.3,0.1,0.5C76.4,89.9,75.7,91.5,75,93.2z"/>
		<path id="Owl_Eye_Left" class="st1" d="M57.8,72c0.2,0,0.4,0,0.6,0c4.2,1.3,8.2,3,11.1,6.5c0.3,0.3,0.5,0.7,0.8,1    c-0.4-1.3,0.5-2,1.3-2.7c0.6-0.6,1.2-1.3,1.8-2l0.4,0.3c-0.2,0.5-0.4,0.9-0.6,1.3c-0.9,1.4-1.1,3-0.7,4.6c0.3,1.7,0.5,3.4,0.7,5    h-0.4c-0.1-0.3-0.3-0.7-0.4-1c-2.7-4.8-6.9-7.8-11.8-9.9c-0.1,0-0.2,0,0,0c0.2,1.1,0.5,2.2,0.6,3.2c0.1,1.3,0.6,2.5,1.5,3.4    c-1.1-1.6-0.4-3.3-0.5-5c0.1,0,0.3,0.1,0.4,0.1l1.1,0.6c-0.7,2.2-0.5,3.4,0.9,4.5c1.2,1,2.4,0.9,4.4-0.4l2.7,3.8    c-5.9,1-12.7-2.4-13.3-6.6l0.7,0.6c-0.2-1.1-0.2-2.1-0.4-3C58.3,74.9,58,73.5,57.8,72L57.8,72z"/>
		<path id="Owl_Eye_Right" class="st1" d="M76.4,86.1c0.3-2.4,0.7-4.8,1-7.3c0-0.3-0.1-0.5-0.2-0.8c-0.4-1-0.9-1.9-1.4-2.9    c0.1-0.1,0.2-0.1,0.2-0.2c0.7,0.6,1.3,1.3,2,1.9s1.5,1.3,1.2,2.6c3-4,7.2-6,11.7-7.4c0.3,0,0.5,0,0.8,0v0.6    c-0.1,0.2-0.2,0.4-0.3,0.6c-0.3,2-0.6,4-0.8,6l0.7-0.3c-1.6,5.1-7.7,7-13.3,6.4l2.7-3.8c1.4,1,2.8,1.6,4.2,0.6    c1.6-1.2,1.8-2.8,1-4.6l1.6-0.9c-0.1,1.8-0.2,3.3-0.2,4.8c0.6-0.8,1-1.7,1.1-2.7c0.2-1.2,0.4-2.4,0.6-3.7    c-1.3,0.7-2.8,1.4-4.2,2.3c-3.5,2-6.3,5-8,8.7C76.6,86.1,76.5,86.1,76.4,86.1z"/>
		<path id="Owl_Eye_Pupil_Left" class="st1" d="M67.9,80.7c-1.1,0.9-2,1-2.8,0.3s-1-1.6-0.3-2.8L67.9,80.7z"/>
		<path id="Owl_Eye_Pupil_Right" class="st1" d="M81.7,80.8l3-2.5c0.7,0.8,0.7,1.9-0.1,2.7c0,0,0,0,0,0    C83.7,81.8,82.8,81.7,81.7,80.8z"/>
	</g>
</g>
</svg>