<svg id="Layer_1" data-name="Layer 1" xmlns="http://www.w3.org/2000/svg" viewBox="0 0 150 150">
  <defs>
    <style>
      .cls-1 {
        fill: #1a1a1a;
      }
    </style>
  </defs>
  <title>logo</title>
  <g id="G_Owl">
    <path id="Owl_Body" class="cls-1" d="M74.61,136.21c-.62-1.22-1.23-2.47-1.86-3.7s-1.4-2.6-1.08-4.13c.24-1.13.7-2.23,1-3.34s.63-2.2.87-3.29c.12-.51.08-1.23-.61-1.23a1.48,1.48,0,0,0-1.08.85c-.31,1.06-.41,2.18-.63,3.26a5.57,5.57,0,0,1-.56,1.54.74.74,0,0,1-.74.08c-.69-.58-1.28-1.25-2-1.83a2.06,2.06,0,0,1-.28-3.29l1.45-1.69c.29-.35.29-.67-.19-.85a.53.53,0,0,1-.17-.08c-.29-.24-.74-.72-.85-.67a6.22,6.22,0,0,0-1.12,1.06,2.5,2.5,0,0,0-.35.54c-1.21,1.73-2.68,1.8-4.17.32a13.35,13.35,0,0,0-1.85-1.32c1.32-.9,2.69-1.83,3.92-2.64-1.45-1.55-2.85-3.2-4.41-4.67-.95-.89-2.32-1.19-3.18-2.33-1.43-1.89-2.95-3.71-4.4-5.59a1.4,1.4,0,0,0-1.64-.65c-1.21.33-2.47.52-3.89.82a11.08,11.08,0,0,1,.19-1.1c.56-1.9,1.15-3.8,1.71-5.69.13-.47.17-1,.3-1.75-5.75,4-11.49,3.7-17.5,1.15L39,90.34l.13-.19h-.3c-6.64,1.58-12.12-.73-17.16-5.1,3.16-.89,6.19-1.77,9.22-2.62-6.47-.58-11.9-2.64-14.72-9.21,3-.16,5.85-.33,8.74-.5-5.82-2.1-10-5.74-11.79-12l7.84,1.27a23.76,23.76,0,0,1-6.8-6.1A22.56,22.56,0,0,1,10.75,47l6.64,2.2A19.79,19.79,0,0,1,8.61,31.84l5.88,3.27.86.56a.68.68,0,0,1,.13-.18l-.75-.58A24.21,24.21,0,0,1,9,26.21a28.49,28.49,0,0,1-1.3-9.43v-3C9.08,14.94,10.23,16,11.44,17,18.64,22.9,25.87,28.74,33,34.69,39.15,39.8,45.19,45,51.29,50.2c.67.55,1.32,1.11,2,1.67,3.79,3.27,4,7.25,1.8,11.49-.33.65-.78,1.26-1.17,1.9a8.41,8.41,0,0,0-.69,7.95C55,71.08,56.79,69.12,58.3,67c1.19-1.7,1-3.63.63-5.68-.65-3.75-3.12-6.58-4.59-9.91-.3-.68-.5-1.41-.75-2.12,0-.09,0-.2-.07-.26-1.3-1.28-1.1-3.1-1.64-4.65-.46-1.33.75-3,2.18-3.58,2.64-1.06,5.35-.91,8.09-.9a8.6,8.6,0,0,1,2.21.23c.37.09.86.52.89.83a1.24,1.24,0,0,1-.72.95c-1.84.39-3.7.65-5.56,1a4.74,4.74,0,0,0-1.3.37c-.71.32-.67.89-.38,1.47A25,25,0,0,0,59,47.91c1.55,2.12,3.14,4.2,4.82,6.21a24,24,0,0,1,4.26,6.34c.61,1.51,1.33,3,1.89,4.52a12.91,12.91,0,0,1,.34,2.28c0,.21.15.53.29.58A16.73,16.73,0,0,0,75,68.92a13.33,13.33,0,0,0,4.33-1.12c.28-.09.45-.85.48-1.33.23-2.66,1.57-4.9,2.66-7.24,1.34-2.86,3.74-4.91,5.58-7.38,1.1-1.49,2.19-3,3.24-4.5a29.35,29.35,0,0,0,1.48-2.7c.41-.8-.18-1.6-1.24-1.76l-5.23-.76a1.85,1.85,0,0,1-.87-.25c-.3-.24-.69-.63-.65-.93s.46-.65.82-.83a2.25,2.25,0,0,1,1.07-.19c2.59,0,5.21-.39,7.74.41a10.48,10.48,0,0,1,2.84,1.3c1,.71.92,1.88.8,3.09-.14,1.88-1.09,3.44-1.71,5.11a34.66,34.66,0,0,1-2.06,4,54.38,54.38,0,0,0-2.55,4.91A11.47,11.47,0,0,0,90.84,65a9.3,9.3,0,0,0,2.47,4.27c1.1,1.3,2.29,2.51,3.5,3.83a8.1,8.1,0,0,0-.34-7.16,32.21,32.21,0,0,1-2.08-3.71c-1.79-4.63-.76-7.54,2.21-10.18,2.74-2.43,5.56-4.76,8.37-7.08Q120,32.48,135,20c2.31-1.92,4.56-3.93,6.83-5.88.09-.07.2-.13.46-.3,0,1.32,0,2.51,0,3.7A27.85,27.85,0,0,1,141,26.23,24.23,24.23,0,0,1,135.3,35l-.75.57a2.14,2.14,0,0,0,.13.19l.86-.56c1.91-1.06,3.81-2.14,5.86-3.27a19.58,19.58,0,0,1-2.14,9.89,22.54,22.54,0,0,1-6.71,7.51l6.65-2.19c-1.13,6.68-4.27,11.71-10.34,14.89,2.64-.41,5.28-.81,8-1.26-1.77,6.27-5.93,9.91-11.81,12l8.78.5c-2.83,6.57-8.26,8.63-14.73,9.21,3,.85,6.06,1.73,9.22,2.62-5,4.37-10.52,6.67-17.16,5.09l-.3,0,.13.19,7.29,5.56A16.39,16.39,0,0,1,101.14,95a10.19,10.19,0,0,0,.11,1.6c.54,1.89,1.14,3.79,1.71,5.69.09.29.13.59.26,1.11-1.5-.3-2.84-.59-4.2-.82a1,1,0,0,0-.87.26c-1.79,2.76-4.37,4.71-6.81,6.81-1.77,1.54-3.66,3-5.45,4.46-1,.8-.89,1.08.08,1.86s2.06,1.71,3.14,2.62a27.76,27.76,0,0,1-2.72,2,2,2,0,0,1-2.84-.67,16.06,16.06,0,0,1-1.23-2c-.39-.68-.7-.61-1.13,0-.78,1.09-.8,1.19.09,2.19.19.2.39.39.58.6,1.37,1.48,1.28,2.64-.28,3.92-.73.61-1.43,1.26-2.31,2-.65-2-1.28-3.93-1.93-5.86-1.27.37-1.51,2-.89,3.46.41,1,.89,1.95,1.37,2.92a4,4,0,0,1-.17,4.07c-.59,1-1.28,2-1.82,3a14,14,0,0,0-.65,2A2.83,2.83,0,0,0,74.61,136.21ZM50.1,89.89a36.64,36.64,0,0,0,.39,3.72,14.76,14.76,0,0,0,1.95,6,53.19,53.19,0,0,0,6.83,8,106,106,0,0,0,13.44,10.62c1.5,1,2.23,1,3.72-.15,2.47-1.8,4.89-3.66,7.42-5.39a52.13,52.13,0,0,0,9.46-8.26A33.71,33.71,0,0,0,96.75,99a19.63,19.63,0,0,0,1.14-2.41c.63-1.57,1.59-3.11,1.76-4.74a25.49,25.49,0,0,0-5.32-18.71c-1.24-1.64-2.52-2.62-4.7-2.23-1.08.2-2.23-.08-3.33.07a9.57,9.57,0,0,0-6.62,4.2A44.37,44.37,0,0,0,76.37,81c-.44.93-1.17,1-1.86,1-.22,0-.59-.69-.87-1.1s-.37-.7-.58-1.06c-1.37-2.43-2.53-5-5-6.65-1.77-1.25-3.48-2.31-5.73-2.25-1.3,0-2.6-.1-3.89,0a2,2,0,0,0-1.33.6C52.46,76.49,50.17,82.44,50.1,89.89Zm-1.47-5.65a28.53,28.53,0,0,1,3.16-8.78,1,1,0,0,0-.11-.81,9.6,9.6,0,0,1-.34-9c.62-1.34,1.57-2.55,2.18-3.89,1.15-2.51,1.38-5-.65-7.29a11.58,11.58,0,0,0-1.34-1.28L37.68,41.38c-1-.82-1.9-1.62-2.9-2.49a13.38,13.38,0,0,0,1.15,11.83A22.12,22.12,0,0,0,42,57l1.4,1C38.25,66.37,41.43,79.48,48.63,84.24ZM115.22,39a2.05,2.05,0,0,0-.32.17c-5.58,4.76-11.18,9.5-16.74,14.28-2.47,2.12-3.53,4.37-1.59,8.57.46,1,1.17,1.9,1.69,2.89a9.88,9.88,0,0,1,0,9.76,1.39,1.39,0,0,0,0,1.06c.79,2,1.64,3.87,2.4,5.82a19.12,19.12,0,0,1,.69,2.68c6.77-4.3,10.58-17.58,5.24-26.19.19-.14.41-.27.58-.42a63.72,63.72,0,0,0,5.06-4.48A13.54,13.54,0,0,0,115.22,39ZM10,18.62c-.1.11-.11.13-.11.15s0,.24,0,.37a19.69,19.69,0,0,0,7.83,15.57c3.19,2.56,6.69,4.77,10.07,7.14,1.29.89,2.61,1.73,3.76,2.51.43-2.1.8-4.19,1.28-6.23A.93.93,0,0,0,32.51,37c-4.5-3.64-9-7.32-13.45-11C16,23.53,13,21.09,10,18.62ZM118.41,44.34c.64-.43,1.44-.93,2.22-1.47,3.88-2.72,7.88-5.26,11.6-8.18a19.32,19.32,0,0,0,7.57-12.8c.15-1.06.2-2.15.31-3.47l-1.37,1.15L117.45,37a.85.85,0,0,0-.36,1.06C117.6,40.1,118,42.18,118.41,44.34Zm-78,14.58c-8.81-2.87-17.64-5.75-26.59-8.65A15.69,15.69,0,0,0,22,59.79a42.44,42.44,0,0,0,10.49,3.38c2.14.47,4.28.9,6.36,1.32Zm69.21,0c.54,1.91,1,3.71,1.54,5.56,1.79-.36,3.56-.67,5.3-1.06,4-.88,7.93-1.75,11.57-3.63a15.68,15.68,0,0,0,8.18-9.52C127.23,53.19,118.4,56.05,109.58,58.92ZM139,35.75c-.21,0-.28,0-.34,0-6.52,3.61-13,7.24-19.58,10.83a3.17,3.17,0,0,0-1.84,2.23,5.91,5.91,0,0,1-.76,1.78c-.84,1.4-1.75,2.77-2.64,4.17a4.73,4.73,0,0,0,.58-.13c3.49-1.34,7-2.64,10.48-4,3.89-1.56,7.52-3.53,10.29-6.78A16.22,16.22,0,0,0,139,35.75ZM36,54.84c.06-.07.1-.15.15-.2L35.61,54a19.62,19.62,0,0,1-3.14-5.75,2.33,2.33,0,0,0-1-1.2q-8.86-5-17.77-9.86l-2.77-1.52c.13.59.18,1,.28,1.37a14.32,14.32,0,0,0,.57,1.86,18.28,18.28,0,0,0,9.65,10.06c3.44,1.66,7.07,3,10.62,4.41C33.38,53.86,34.7,54.34,36,54.84Zm3,16.7c-.08-1.34-.24-2.69-.23-4,0-.8-.26-1-1-1-6.77-1-13.52-1.94-20.29-2.92l-1.08-.12a7.11,7.11,0,0,0,.34.66,14.55,14.55,0,0,0,10.3,6.78c3.85.62,7.81.54,11.73.78A.59.59,0,0,0,39,71.54Zm94.51-8.11c-.46,0-.72.06-1,.1-4,.57-8,1.17-12,1.76-2.89.41-5.77.8-8.63,1.23-.24,0-.63.32-.65.5-.11,1.51-.17,3-.24,4.56a1.6,1.6,0,0,0,.33.07c2.53-.05,5.08-.09,7.61-.2a19,19,0,0,0,10.52-3.4A13.58,13.58,0,0,0,133.51,63.43ZM19.68,75.15a5,5,0,0,0,.3.45,12,12,0,0,0,6.43,3.84,28.33,28.33,0,0,0,11,.32c1.36-.19,2.7-.43,4-.65-.6-1.66-1.17-3.14-1.66-4.67-.16-.52-.33-.63-.89-.59-4.07.31-8.16.55-12.23.83C24.33,74.85,22,75,19.68,75.15Zm88.95,3.92s0,.06.08.06a40.82,40.82,0,0,0,11.71.89,14.71,14.71,0,0,0,7.87-2.81c.72-.56,1.34-1.26,2.17-2l-6.58-.43c-4.29-.3-8.59-.6-12.89-.86a.86.86,0,0,0-.65.39C109.73,75.84,109.19,77.44,108.63,79.07ZM26.41,85.93c6.12,4,12.81,3.22,19.19-1.28-.56-.61-1.15-1.21-1.68-1.86-1.39-1.69-1.37-1.69-3.45-1.08C35.82,83.13,31.17,84.52,26.41,85.93Zm78-1.17c6.71,4.54,15.47,5.06,19.05,1.15-5.18-1.56-10.35-3.12-15.56-4.64a1,1,0,0,0-.85.22C106.12,82.53,105.29,83.63,104.38,84.76ZM36,95.36c.45.09.73.17,1,.22A12.49,12.49,0,0,0,47.77,93a1.64,1.64,0,0,0,.56-1.13c0-1.58,0-3.14-.07-4.73a1.29,1.29,0,0,0-.52-.76c-.1-.07-.45.06-.6.19C43.5,89.43,39.83,92.33,36,95.36Zm66.38-9.15a1,1,0,0,0-.74,1.21,21.74,21.74,0,0,1,0,3.61,2.21,2.21,0,0,0,1.06,2.36c.45.28.88.59,1.34.86a13.09,13.09,0,0,0,9.87,1.09Z"/>
    <path id="Owl_Crown" class="cls-1" d="M66.16,53.28c-.67-2.94-1.32-5.8-2-8.7.13,0,.21,0,.24,0,2.16,2.51,5.34,2.38,7.76-.28,1.54-1.71,2-3.83,2.4-6,0-.24.09-.48.13-.72s.07-.28.15-.6c.29,1.4.52,2.64.85,3.85a7.06,7.06,0,0,0,5,5.38,4,4,0,0,0,4.46-1.42,1.33,1.33,0,0,0,.13-.35l.28.19c-.65,2.84-1.29,5.71-2,8.64A29.74,29.74,0,0,0,66.16,53.28Z"/>
    <path id="Owl_Chest" class="cls-1" d="M90.58,104.32a38.79,38.79,0,0,1-6.86,5.92c-2.94,1.89-5.69,4.07-8.5,6.13a.88.88,0,0,1-1.15.1,71.65,71.65,0,0,1-15.36-12.22s-.06-.11-.15-.24c1.73-1.58,3.48-3.2,5.24-4.78a1.46,1.46,0,0,1,.88-.19l18.74.69a1.86,1.86,0,0,1,.87.21C86.39,101.39,88.46,102.84,90.58,104.32Z"/>
    <path id="Owl_Beak" class="cls-1" d="M75,93.19c-.65-1.6-1.25-3-1.8-4.49a.89.89,0,0,1,.07-.61c.58-1.25,1.15-2.49,1.8-3.87.67,1.27,1.29,2.42,1.88,3.57a.68.68,0,0,1,.09.51C76.37,89.91,75.7,91.47,75,93.19Z"/>
    <path id="Owl_Eye_Left" class="cls-1" d="M57.83,72a2.62,2.62,0,0,1,.56,0c4.2,1.3,8.16,3,11.1,6.49.26.31.5.67.82,1-.39-1.32.46-2,1.25-2.73.63-.64,1.19-1.34,1.76-2l.36.28a8.54,8.54,0,0,1-.6,1.34A5.8,5.8,0,0,0,72.36,81c.29,1.68.5,3.37.74,5h-.37a6.91,6.91,0,0,0-.43-1c-2.7-4.76-6.86-7.79-11.75-9.93-.06,0-.15,0,0,0,.2,1.12.48,2.18.59,3.24a5.05,5.05,0,0,0,1.51,3.38c-1.1-1.56-.39-3.27-.5-5a1.34,1.34,0,0,1,.37.11l1.09.61c-.74,2.18-.48,3.42.88,4.48,1.19,1,2.4.86,4.39-.41l2.67,3.78c-5.93,1-12.7-2.42-13.29-6.57l.69.64c-.15-1.08-.24-2.07-.41-3-.22-1.42-.49-2.83-.73-4.24Z"/>
    <path id="Owl_Eye_Right" class="cls-1" d="M76.43,86.1c.35-2.42.7-4.83,1-7.25a1.5,1.5,0,0,0-.24-.76c-.45-1-.91-1.92-1.36-2.87a1.74,1.74,0,0,0,.22-.18c.65.63,1.29,1.28,2,1.88s1.52,1.35,1.19,2.6c3-4,7.15-6,11.69-7.4a2,2,0,0,1,.76,0v.55a3,3,0,0,0-.28.64c-.27,2-.55,4-.83,6l.69-.33c-1.6,5.07-7.66,7-13.34,6.41l2.74-3.79c1.43,1,2.77,1.6,4.18.57,1.64-1.19,1.84-2.8,1-4.61l1.62-.87c-.09,1.75-.17,3.33-.24,4.8a4.68,4.68,0,0,0,1.08-2.7c.18-1.21.41-2.42.63-3.68-1.3.71-2.79,1.41-4.18,2.3a19.85,19.85,0,0,0-8,8.67A2.55,2.55,0,0,0,76.43,86.1Z"/>
    <path id="Owl_Eye_Pupil_Left" class="cls-1" d="M67.86,80.69c-1.14.93-2,1-2.79.3s-1-1.56-.26-2.81Z"/>
    <path id="Owl_Eye_Pupil_Right" class="cls-1" d="M81.65,80.76l3-2.51a1.88,1.88,0,0,1-.11,2.7C83.74,81.75,82.82,81.73,81.65,80.76Z"/>
  </g>
</svg>
